# xmcd
# Copyright (c) 1998 CDDB Inc.
#
# Track frame offsets:
#	150
#	12152
#	23170
#	36161
#	53705
#	60820
#	65423
#	72170
#	92720
#	106998
#	127889
#	143877
#	156811
#	174449
#	181842
#	189695
#	206971
#	226084
#	235187
#
# Disc length: 3390 seconds
#
# Revision: 0
# Processed by: cddbd v1.4PL0 Copyright (c) Steve Scherf et al.
# Submitted via: audiograbber 1.70
#
DISCID=f60d3c13
DTITLE=Алексей  Селюнин - ЖЁСТКИЙ  РОМАНС
DYEAR=1900
DGENRE=
TTITLE0=Женщина по имени НО
TTITLE1=Охотник\n
TTITLE2=Девочка Гелла\n
TTITLE3=Револьвер
TTITLE4=Романс\n
TTITLE5=Маленькая злая\n
TTITLE6=Несыгранная песня\n
TTITLE7=Траурный вальс\n
TTITLE8=Грибок\n
TTITLE9=Без слов
TTITLE10=Твои крылья
TTITLE11=Жозефина\n
TTITLE12=С пуговкой в лоб\n
TTITLE13=Два алмазных жука\n
TTITLE14=Мать королева\n
TTITLE15=Изобелла Му-Му\n
TTITLE16=Спокойной ночи
TTITLE17=Анна Борисовна
TTITLE18=Танго
EXTD=
EXTT0=
EXTT1=
EXTT2=
EXTT3=
EXTT4=
EXTT5=
EXTT6=
EXTT7=
EXTT8=
EXTT9=
EXTT10=
EXTT11=
EXTT12=
EXTT13=
EXTT14=
EXTT15=
EXTT16=
EXTT17=
EXTT18=Создатель - Независимая  студия  МАВЗОЛЕЙ.  2002  г.
PLAYORDER=
